# xmcd
#
# Track frame offsets:
#	150
#	11923
#	23642
#	34621
#	47102
#	59798
#	76067
#	82940
#	100808
#	112867
#	125552
#	126664
#	137090
#	149910
#
# Disc length: 2158 seconds
#
# Revision: 2
# Processed by: cddbd v1.5PL3 Copyright (c) Steve Scherf et al.
# Submitted via: EasyCDDAExtractor 6.5.2.1
#
DISCID=c4086c0e
DTITLE=BSE - Het virus verspreidt
DYEAR=2003
DGENRE=Nederhop
TTITLE0=BSE
TTITLE1=Leven
TTITLE2=Tijd
TTITLE3=Dope Jaar
TTITLE4=Fuck You (ft. Noukie)
TTITLE5=Volle Belaging (ft. III Type)
TTITLE6=1 Dag
TTITLE7=Voor Jou (ft. Jiggy Dje)
TTITLE8=Onstage
TTITLE9=Kwaliteit Verzekerd
TTITLE10=Hobby Skit (Noukie)
TTITLE11=Hobby (ft. Noukie)
TTITLE12=Boom Bap (ft. Twann)
TTITLE13=Het Virus (ft. Eva)
EXTD=FOR MORE INFO PLEASE MAIL: BSEHipHop@Hotmail.com\nyear: 2003\nthanx: Snel
EXTD=le Jelle, Anouk, Kaymir, Jiggy Dje, Darin G, Dj Donor, Twann, RSZ, Eva, S
EXTD=alvadoR, III Type, Leo, Jullian, Roos, deejay-d'efect.\nfor promotional p
EXTD=urposes check out:\nhttp://www.rszdesign.com/~bse/
EXTT0=
EXTT1=
EXTT2=
EXTT3=
EXTT4=
EXTT5=
EXTT6=
EXTT7=
EXTT8=
EXTT9=
EXTT10=
EXTT11=
EXTT12=
EXTT13=
PLAYORDER=
